<svg xmlns="http://www.w3.org/2000/svg" xmlns:xlink="http://www.w3.org/1999/xlink" width="70" height="62" viewBox="0 0 70 62"><defs><linearGradient id="a" x1="0.5" x2="0.5" y2="1" gradientUnits="objectBoundingBox"><stop offset="0" stop-color="#03f"/><stop offset="1" stop-color="#1377e9"/></linearGradient></defs><g transform="translate(892 -279)"><circle cx="29" cy="29" r="29" transform="translate(-880 283)" fill="#c2dbfb"/><g transform="translate(-892 279)"><path d="M30.622,33.443l15.9-12.722L30.622,8v9.541H2V23.9H30.622Z" transform="translate(-1.998 7.905)" fill="url(#a)"/><path d="M26.875,3a28.427,28.427,0,0,0-20.24,8.387l4.5,4.5a22.266,22.266,0,1,1,0,31.486l-4.5,4.5a28.616,28.616,0,0,0,40.48,0A28.627,28.627,0,0,0,26.875,3Z" transform="translate(8.112 -2.999)" fill="url(#a)"/></g></g></svg>