<svg xmlns="http://www.w3.org/2000/svg" xmlns:xlink="http://www.w3.org/1999/xlink" width="13.6" height="12.387" viewBox="0 0 13.6 12.387"><defs><linearGradient id="a" x1="0.5" x2="0.5" y2="1" gradientUnits="objectBoundingBox"><stop offset="0" stop-color="#03f"/><stop offset="1" stop-color="#1377e9"/></linearGradient></defs><g transform="translate(-3 -3)"><path d="M11.784,17.234l4.007-4.3a2.962,2.962,0,0,0,0-4.01,2.506,2.506,0,0,0-3.74,0l-.266.286-.267-.286a2.506,2.506,0,0,0-3.74,0,2.964,2.964,0,0,0,0,4.01Z" transform="translate(-1.985 -3.275)" fill="url(#a)"/><path d="M16.6,3.688A.724.724,0,0,0,15.845,3H3.756A.724.724,0,0,0,3,3.688V14.7a.724.724,0,0,0,.756.688H15.845A.724.724,0,0,0,16.6,14.7ZM15.089,14.01H4.511V4.376H15.089Z" transform="translate(0 0)" fill="url(#a)"/></g></svg>