<svg xmlns="http://www.w3.org/2000/svg" width="19" height="20" viewBox="0 0 19 20"><path d="M19,3a2.977,2.977,0,0,0-2.646,4.385l-1.116,1.3a3.941,3.941,0,0,0-4.258-.121L9.566,7.152A3.449,3.449,0,0,0,10,5.5,3.5,3.5,0,1,0,6.5,9a3.449,3.449,0,0,0,1.652-.434L9.566,9.98A3.91,3.91,0,0,0,9.985,14.6L8.293,16.293l.025.025A2.963,2.963,0,0,0,7,16a3,3,0,1,0,3,3,2.963,2.963,0,0,0-.318-1.318l.025.025,1.954-1.954a3.968,3.968,0,0,0,4.9-5.538l1.253-1.462A2.969,2.969,0,0,0,19,9a3,3,0,0,0,0-6ZM7,20a1,1,0,1,1,1-1A1,1,0,0,1,7,20ZM5,5.5A1.5,1.5,0,1,1,6.5,7,1.5,1.5,0,0,1,5,5.5ZM13,14a2,2,0,1,1,2-2A2,2,0,0,1,13,14Zm6-7a1,1,0,1,1,1-1A1,1,0,0,1,19,7Z" transform="translate(-3 -2)" fill="#0861a7"/></svg>