<svg xmlns="http://www.w3.org/2000/svg" width="41.591" height="46.213" viewBox="0 0 41.591 46.213"><path d="M15.932,23.864A6.932,6.932,0,1,0,9,16.932,6.893,6.893,0,0,0,15.932,23.864Z" transform="translate(4.864 8.485)" fill="#fff"/><path d="M44.169,23.226a20.659,20.659,0,0,0-1.213-3.9,21.057,21.057,0,0,0-1.918-3.538A20.7,20.7,0,0,0,38.5,12.717a20.715,20.715,0,0,0-6.608-4.46,20.529,20.529,0,0,0-8.154-1.631V2L14.553,8.932l9.185,6.932V11.247a16.118,16.118,0,0,1,11.5,4.737,16.169,16.169,0,0,1,4.409,8.173,16.161,16.161,0,0,1-2.431,12.3,16.639,16.639,0,0,1-1.983,2.4,15.987,15.987,0,0,1-2.394,1.973,16.147,16.147,0,0,1-5.777,2.433,16.476,16.476,0,0,1-6.521,0,16.086,16.086,0,0,1-3.036-.945,16.169,16.169,0,0,1-5.139-3.464,16.509,16.509,0,0,1-1.976-2.394,16.117,16.117,0,0,1-2.766-9.046H3a20.76,20.76,0,0,0,6.091,14.7,20.768,20.768,0,0,0,3.075,2.539,20.752,20.752,0,0,0,7.44,3.133,21.031,21.031,0,0,0,8.381,0,20.764,20.764,0,0,0,7.436-3.131A20.532,20.532,0,0,0,38.5,42.12a20.758,20.758,0,0,0,4.457-6.608,20.767,20.767,0,0,0,1.636-8.094A21,21,0,0,0,44.169,23.226Z" transform="translate(-3 -2)" fill="#fff"/></svg>