<svg xmlns="http://www.w3.org/2000/svg" xmlns:xlink="http://www.w3.org/1999/xlink" width="62" height="53.041" viewBox="0 0 62 53.041"><defs><linearGradient id="a" x1="0.5" x2="0.5" y2="1" gradientUnits="objectBoundingBox"><stop offset="0" stop-color="#03f"/><stop offset="1" stop-color="#1377e9"/></linearGradient></defs><g transform="translate(399 -1292)"><rect width="57" height="51" rx="25.5" transform="translate(-394 1294)" fill="#c2dbfb"/><path d="M55.041,3H16.734A5.9,5.9,0,0,0,10.84,8.893v5.893H7.893A5.9,5.9,0,0,0,2,20.68V50.147a5.9,5.9,0,0,0,5.893,5.893h17.68a5.9,5.9,0,0,0,5.893-5.893H55.041a5.9,5.9,0,0,0,5.893-5.893V8.893A5.9,5.9,0,0,0,55.041,3ZM25.565,50.147H7.893V20.68h17.68Zm29.467-5.893H31.467V20.68a5.9,5.9,0,0,0-5.893-5.893h-8.84V8.893H55.041Z" transform="translate(-401 1289)" fill="url(#a)"/></g></svg>