<svg xmlns="http://www.w3.org/2000/svg" xmlns:xlink="http://www.w3.org/1999/xlink" width="56" height="61" viewBox="0 0 56 61"><defs><linearGradient id="a" x1="0.5" x2="0.5" y2="1" gradientUnits="objectBoundingBox"><stop offset="0" stop-color="#03f"/><stop offset="1" stop-color="#1377e9"/></linearGradient></defs><circle cx="25.5" cy="25.5" r="25.5" transform="translate(0 10)" fill="#c2dbfb"/><g transform="translate(3.866)"><path d="M17.689,27.378a8.689,8.689,0,1,1,8.689-8.689A8.641,8.641,0,0,1,17.689,27.378Z" transform="translate(8.378 13.17)" fill="url(#a)"/><path d="M3.53,28.606a25.9,25.9,0,0,1,1.521-4.889,26.393,26.393,0,0,1,2.4-4.434,25.943,25.943,0,0,1,3.18-3.849,25.966,25.966,0,0,1,8.283-5.59A25.732,25.732,0,0,1,29.139,7.8V2l11.513,8.689L29.139,19.378V13.591A20.2,20.2,0,0,0,14.73,19.528,20.268,20.268,0,0,0,9.2,29.773a20.257,20.257,0,0,0,3.047,15.42A20.856,20.856,0,0,0,14.736,48.2a20.039,20.039,0,0,0,3,2.473,20.24,20.24,0,0,0,7.241,3.05,20.652,20.652,0,0,0,8.173,0,20.162,20.162,0,0,0,3.806-1.185A20.268,20.268,0,0,0,43.4,48.2a20.693,20.693,0,0,0,2.476-3,20.2,20.2,0,0,0,3.467-11.339h5.793A26.022,26.022,0,0,1,47.5,52.289a26.032,26.032,0,0,1-3.855,3.183A26.012,26.012,0,0,1,34.318,59.4a26.361,26.361,0,0,1-10.5,0,26.027,26.027,0,0,1-9.32-3.925,25.737,25.737,0,0,1-3.855-3.183,26.02,26.02,0,0,1-5.587-8.283A26.03,26.03,0,0,1,3,33.859,26.329,26.329,0,0,1,3.53,28.606Z" transform="translate(-3 -2)" fill="url(#a)"/></g></svg>